<mxfile host="app.diagrams.net" agent="Mozilla/5.0 (Windows NT 10.0; Win64; x64) AppleWebKit/537.36 (KHTML, like Gecko) Chrome/129.0.0.0 Safari/537.36" version="24.7.17">
  <diagram name="Página-1" id="QO7LdimePbAjbP1CLfTZ">
    <mxGraphModel dx="1134" dy="637" grid="1" gridSize="10" guides="1" tooltips="1" connect="1" arrows="1" fold="1" page="1" pageScale="1" pageWidth="827" pageHeight="1169" math="0" shadow="0">
      <root>
        <mxCell id="0" />
        <mxCell id="1" parent="0" />
        <mxCell id="LL-qBBwUsc8KCAVVpThk-1" value="" style="image;html=1;image=img/lib/clip_art/networking/Switch_128x128.png" vertex="1" parent="1">
          <mxGeometry x="121" y="130" width="140" height="120" as="geometry" />
        </mxCell>
        <mxCell id="LL-qBBwUsc8KCAVVpThk-5" value="" style="shape=image;verticalLabelPosition=bottom;labelBackgroundColor=default;verticalAlign=top;aspect=fixed;imageAspect=0;image=https://wirelessshop.mx/ProdImg/LPLPSFP1GRJ45_01.png;rotation=-135;" vertex="1" parent="1">
          <mxGeometry x="106" y="200" width="170" height="170" as="geometry" />
        </mxCell>
        <mxCell id="LL-qBBwUsc8KCAVVpThk-6" value="" style="shape=image;verticalLabelPosition=bottom;labelBackgroundColor=default;verticalAlign=top;aspect=fixed;imageAspect=0;image=https://selpisa.com.mx/wp-content/uploads/2021/05/ATMMC2000_SC960-h.png;" vertex="1" parent="1">
          <mxGeometry x="541" y="195" width="180" height="180" as="geometry" />
        </mxCell>
        <mxCell id="LL-qBBwUsc8KCAVVpThk-7" value="" style="image;html=1;image=img/lib/clip_art/networking/Switch_128x128.png" vertex="1" parent="1">
          <mxGeometry x="551" y="130" width="140" height="120" as="geometry" />
        </mxCell>
        <mxCell id="LL-qBBwUsc8KCAVVpThk-8" value="" style="shape=image;verticalLabelPosition=bottom;labelBackgroundColor=default;verticalAlign=top;aspect=fixed;imageAspect=0;image=https://optral.com/uploads/cable/images/DRA.png;" vertex="1" parent="1">
          <mxGeometry x="261" y="220" width="337.78" height="190" as="geometry" />
        </mxCell>
        <mxCell id="LL-qBBwUsc8KCAVVpThk-9" value="TRANCISTOR" style="text;strokeColor=none;fillColor=none;spacingLeft=4;spacingRight=4;overflow=hidden;rotatable=0;points=[[0,0.5],[1,0.5]];portConstraint=eastwest;fontSize=12;whiteSpace=wrap;html=1;" vertex="1" parent="1">
          <mxGeometry x="130" y="330" width="110" height="60" as="geometry" />
        </mxCell>
        <mxCell id="LL-qBBwUsc8KCAVVpThk-11" value="CABLE DE FIBRA ÓPTICA" style="text;strokeColor=none;fillColor=none;spacingLeft=4;spacingRight=4;overflow=hidden;rotatable=0;points=[[0,0.5],[1,0.5]];portConstraint=eastwest;fontSize=12;whiteSpace=wrap;html=1;align=center;" vertex="1" parent="1">
          <mxGeometry x="370" y="350" width="110" height="60" as="geometry" />
        </mxCell>
        <mxCell id="LL-qBBwUsc8KCAVVpThk-12" value="CONVERTIDOR DE MEDIOS" style="text;strokeColor=none;fillColor=none;spacingLeft=4;spacingRight=4;overflow=hidden;rotatable=0;points=[[0,0.5],[1,0.5]];portConstraint=eastwest;fontSize=12;whiteSpace=wrap;html=1;align=center;" vertex="1" parent="1">
          <mxGeometry x="590" y="330" width="110" height="60" as="geometry" />
        </mxCell>
        <mxCell id="LL-qBBwUsc8KCAVVpThk-13" value="SWITCH&lt;div&gt;&lt;br&gt;&lt;/div&gt;" style="text;strokeColor=none;fillColor=none;spacingLeft=4;spacingRight=4;overflow=hidden;rotatable=0;points=[[0,0.5],[1,0.5]];portConstraint=eastwest;fontSize=12;whiteSpace=wrap;html=1;" vertex="1" parent="1">
          <mxGeometry x="151" y="100" width="110" height="60" as="geometry" />
        </mxCell>
        <mxCell id="LL-qBBwUsc8KCAVVpThk-14" value="SWITCH&lt;div&gt;&lt;br&gt;&lt;/div&gt;" style="text;strokeColor=none;fillColor=none;spacingLeft=4;spacingRight=4;overflow=hidden;rotatable=0;points=[[0,0.5],[1,0.5]];portConstraint=eastwest;fontSize=12;whiteSpace=wrap;html=1;" vertex="1" parent="1">
          <mxGeometry x="576" y="100" width="110" height="60" as="geometry" />
        </mxCell>
      </root>
    </mxGraphModel>
  </diagram>
</mxfile>
